<svg xmlns="http://www.w3.org/2000/svg" viewBox="0 0 32 32" role="img" aria-label="Snapchat">
  <!-- Yellow rounded-square background -->
  <rect width="32" height="32" rx="7.5" fill="#FFFC00"/>
  <!-- Ghost silhouette -->
  <path d="M16 4.5c-4 0-6.8 2.9-6.8 6.8v5.3c-.5.5-1.4.7-2 .9 .1.6.6 1.0 1.2 1.1-.15.3-.4.5-.7.6.5.7 2.0.9 3.0 1.1.4.7 1.2 1.2 2.0 1.4-.6.4-1.5.6-2.5.5.5.9 1.8 1.1 3.0.9l1.5 1.2a.8.8 0 001 0l1.5-1.2c1.2.2 2.5 0 3-.9-1-.1-1.9-.3-2.5-.5.8-.2 1.6-.7 2-1.4 1-.2 2.5-.4 3-1.1-.3-.1-.55-.3-.7-.6.6-.1 1.1-.5 1.2-1.1-.6-.2-1.5-.4-2-.9v-5.3C22.8 7.4 20 4.5 16 4.5z"
        fill="#1a1a1a"/>
</svg>
