<svg xmlns="http://www.w3.org/2000/svg" viewBox="0 0 32 32" role="img" aria-label="WhatsApp">
  <!-- Green circle background -->
  <circle cx="16" cy="16" r="16" fill="#25D366"/>
  <!-- Phone-in-bubble path (WhatsApp style) -->
  <path d="M16 4.8C9.8 4.8 4.8 9.8 4.8 16c0 2.0.5 3.9 1.5 5.5L4.5 27.5l6.2-1.7A11.1 11.1 0 0016 27.2c6.2 0 11.2-5 11.2-11.2S22.2 4.8 16 4.8zm6.4 15.6c-.3.8-1.6 1.5-2.2 1.6-.6.1-1.3.1-4.1-1.4-3.4-1.8-5.5-5.3-5.7-5.5-.2-.3-1.3-1.8-1.3-3.4 0-1.6.9-2.4 1.2-2.7.3-.3.7-.4 1-.4h.7c.3 0 .6.0.8.6l1.1 2.7c.1.3.1.6 0 .8l-.5.6c-.1.1-.2.3-.1.5.6 1.0 1.4 1.9 2.2 2.5.9.7 1.9 1.1 2.4 1.2.2.1.4 0 .5-.1l.7-.8c.2-.2.5-.3.8-.2l2.6 1.2c.3.1.5.3.5.6v.7c-.1.3-.1.6-.4 1.3z"
        fill="#fff"/>
</svg>
